<svg width="727" height="621" viewBox="0 0 727 621" fill="none" xmlns="http://www.w3.org/2000/svg">
<path d="M142.192 334.175C78.0862 363.169 41.6671 402.473 24.9861 427.092C24.9861 427.092 -109.34 604.589 244.912 533.114C354.216 511.06 425.534 644.429 551.755 616.501C734.807 575.999 734.807 425.901 734.807 425.901V56.6147C723.832 61.7767 693.192 73.2921 658.425 78.0571C614.967 84.0133 612.991 78.0571 551.755 33.9809C469.154 -25.4723 383.847 13.1341 383.847 13.1341C347.632 23.2598 263.929 78.672 276.607 135.741C306.301 269.419 251.239 284.855 142.192 334.175Z" fill="url(#paint0_linear_48_543)" fill-opacity="0.8"/>
<defs>
<linearGradient id="paint0_linear_48_543" x1="379.896" y1="0.811142" x2="379.896" y2="427.093" gradientUnits="userSpaceOnUse">
<stop stop-color="#31CB72"/>
<stop offset="1" stop-color="#03987D"/>
</linearGradient>
</defs>
</svg>
