<svg xmlns="http://www.w3.org/2000/svg" id="Layer_2" data-name="Layer 2" viewBox="0 0 930.17 933.11"><defs><style>      .cls-1 {        fill: #fff;      }      .cls-2 {        fill: #5c5c5c;      }      .cls-3 {        opacity: .2;      }      .cls-4, .cls-5 {        stroke: #1a2e35;        stroke-linecap: round;        stroke-linejoin: round;        stroke-width: .88px;      }      .cls-4, .cls-6 {        fill: #1a2e35;      }      .cls-7 {        fill: #bdbdbd;      }      .cls-5 {        fill: none;      }      .cls-8 {        fill: #001912;      }      .cls-9, .cls-10 {        fill: #55f6a6;      }      .cls-10 {        opacity: .3;      }      .cls-11 {        fill: #9e9e9e;      }    </style></defs><g id="Layer_1-2" data-name="Layer 1"><g><path class="cls-10" d="m857.93,321.55c-5.46-17.38-12.24-34.35-21.02-50.68-44.33-82.37-122.05-144.49-207.06-181.2-67.48-29.14-150.96-44.38-222.57-18.13-36.21,13.27-70.29,38.75-89.71,72.61-25.36,44.21-22.91,99.07-43,145.53-16.28,37.65-56.78,60.28-88.52,83.4-49.51,36.07-98.27,78.76-115.44,139.8-22.91,81.45-16.13,178.32,30.28,250.7,34.61,53.98,93.89,70.2,155.05,71.31,57.72,1.05,128.26-13.53,182.18,12.8,91.78,44.82,212.88,95.12,315.56,59.65,105.83-36.56,157.78-107.75,173.17-200.11,15.39-92.36-26.94-169.33-40.41-242.45-8.5-46.17-14.05-97.19-28.51-143.22Z"></path><path class="cls-3" d="m766.59,201.05c-27.29,0-51.78,10.4-68.57,26.9l8.63-38.65-18.81,10.58s-10.58,3.53-21.16,12.93-15.28,25.86-15.28,25.86l34.09-15.28s-35.26,32.91-35.26,42.32-2.35,29.39-2.35,29.39l27.17-18.42c-.09,1.43-.14,2.87-.14,4.32,0,10.73,2.44,20.96,6.84,30.3-2.76,5.22-5.66,12.3-5.66,19.07,0,12.93,3.53,21.16,3.53,21.16l17.41-18.5c1.23,1.25,2.49,2.46,3.8,3.64l6.99,14.86,10.58,12.93,2.35-12.93-1.44-2.04c13.81,7.26,29.98,11.44,47.28,11.44,50.64,0,91.68-35.79,91.68-79.93s-41.05-79.93-91.68-79.93Z"></path><g><g><path class="cls-11" d="m819.62,204.6c-13.74-11.07-31.2-17.71-50.21-17.71s-36.47,6.64-50.21,17.71h-29.9v62.4c0,44.24,35.87,80.11,80.11,80.11s80.11-35.87,80.11-80.11v-62.4h-29.9Z"></path><path class="cls-6" d="m769.41,347.55c-44.42,0-80.55-36.13-80.55-80.55v-62.4c0-.24.2-.44.44-.44h29.74c14.23-11.42,32.11-17.71,50.37-17.71s36.14,6.29,50.37,17.71h29.74c.24,0,.44.2.44.44v62.4c0,44.42-36.13,80.55-80.55,80.55Zm-79.67-142.51v61.96c0,43.93,35.74,79.67,79.67,79.67s79.67-35.74,79.67-79.67v-61.96h-29.46c-.1,0-.2-.03-.28-.1-14.3-11.52-31.57-17.61-49.94-17.61s-35.64,6.09-49.94,17.61c-.08.06-.18.1-.28.1h-29.46Z"></path></g><g><circle class="cls-7" cx="769.41" cy="204.6" r="80.11"></circle><path class="cls-6" d="m769.41,285.15c-44.42,0-80.55-36.13-80.55-80.55s36.13-80.55,80.55-80.55,80.55,36.13,80.55,80.55-36.13,80.55-80.55,80.55Zm0-160.22c-43.93,0-79.67,35.74-79.67,79.67s35.74,79.67,79.67,79.67,79.67-35.74,79.67-79.67-35.74-79.67-79.67-79.67Z"></path></g><g><circle class="cls-11" cx="769.41" cy="204.6" r="72.97"></circle><path class="cls-6" d="m769.41,278c-40.48,0-73.4-32.93-73.4-73.4s32.93-73.41,73.4-73.41,73.41,32.93,73.41,73.41-32.93,73.4-73.41,73.4Zm0-145.93c-39.99,0-72.53,32.53-72.53,72.53s32.54,72.52,72.53,72.52,72.53-32.53,72.53-72.52-32.54-72.53-72.53-72.53Z"></path></g><g><ellipse class="cls-2" cx="769.41" cy="210.93" rx="69" ry="66.63"></ellipse><path class="cls-6" d="m769.41,278c-38.29,0-69.44-30.09-69.44-67.07s31.15-67.07,69.44-67.07,69.44,30.09,69.44,67.07-31.15,67.07-69.44,67.07Zm0-133.26c-37.81,0-68.56,29.69-68.56,66.19s30.76,66.19,68.56,66.19,68.57-29.69,68.57-66.19-30.76-66.19-68.57-66.19Z"></path></g><path class="cls-6" d="m765.72,202.23c-.49,0-.88-.39-.88-.88V69.71c0-.49.39-.88.88-.88s.88.39.88.88v131.64c0,.49-.39.88-.88.88Z"></path><path class="cls-6" d="m689.42,254.21c-.09,0-.19-.01-.28-.05-.46-.15-.71-.65-.56-1.11,17.62-52.87,75.16-74.43,75.74-74.64.45-.17.96.07,1.13.52s-.07.96-.52,1.13c-.57.21-57.32,21.49-74.67,73.55-.12.37-.47.6-.83.6Z"></path><path class="cls-6" d="m764.62,111.8c-.25,0-.5-.11-.67-.31-.24-.29-24.73-28.6-73.56-36.19-.48-.07-.81-.52-.73-1,.07-.48.53-.81,1-.73,49.52,7.7,74.39,36.51,74.63,36.8.31.37.27.93-.1,1.24-.17.14-.37.21-.57.21Z"></path><g><g><path class="cls-9" d="m705.84,222.56s-35.48-8.87-49.81,6.82c-14.33,15.69-10.24,38.89-10.24,38.89,0,0,3.41-3.41,21.83-12.96,18.42-9.55,38.21-32.75,38.21-32.75Z"></path><path class="cls-6" d="m645.51,269.17l-.15-.82c-.04-.23-3.97-23.59,10.34-39.27,14.34-15.71,48.78-7.32,50.24-6.95l.69.17-.46.54c-.2.23-20.06,23.37-38.34,32.86-18.07,9.37-21.69,12.85-21.73,12.89l-.6.59Zm38.84-48.64c-10.12,0-21.4,1.92-28,9.14-12.55,13.75-10.78,33.6-10.24,37.74,1.62-1.29,6.85-5,21.31-12.5,16.57-8.59,34.47-28.53,37.6-32.1-2.46-.55-11.04-2.29-20.67-2.29Z"></path></g><g><path class="cls-9" d="m705.84,222.56s-23.2,3.41-42.99,22.52"></path><path class="cls-6" d="m663.16,245.39l-.61-.63c19.66-18.98,43-22.6,43.23-22.64l.13.87c-.23.03-23.29,3.62-42.75,22.4Z"></path></g></g><g><g><path class="cls-9" d="m691.43,250.27s-33.64,14.34-35.6,35.5c-1.95,21.16,15.31,37.19,15.31,37.19,0,0,.66-4.78,9.59-23.51,8.92-18.74,10.7-49.18,10.7-49.18Z"></path><path class="cls-6" d="m671.46,323.86l-.61-.57c-.17-.16-17.4-16.42-15.45-37.55,1.96-21.18,34.48-35.28,35.86-35.87l.65-.28-.04.71c-.02.31-1.88,30.74-10.74,49.34-8.75,18.37-9.54,23.34-9.55,23.39l-.12.83Zm19.48-72.88c-4.71,2.15-32.92,15.82-34.67,34.84-1.71,18.54,11.69,33.29,14.62,36.27.51-2.01,2.44-8.12,9.45-22.83,8.03-16.85,10.27-43.56,10.61-48.29Z"></path></g><g><path class="cls-9" d="m691.43,250.27s-16.44,16.72-20.69,43.9"></path><path class="cls-6" d="m671.18,294.24l-.87-.14c4.22-27,20.64-43.97,20.81-44.14l.63.62c-.16.17-16.39,16.94-20.56,43.66Z"></path></g></g><g><g><path class="cls-9" d="m721.87,205.24s33.64,14.34,35.6,35.5-15.31,37.19-15.31,37.19c0,0-.66-4.78-9.59-23.51-8.92-18.74-10.7-49.18-10.7-49.18Z"></path><path class="cls-6" d="m741.84,278.82l-.12-.83s-.8-5.02-9.55-23.39c-8.86-18.6-10.72-49.03-10.74-49.34l-.04-.71.65.28c1.38.59,33.91,14.69,35.86,35.87,1.95,21.13-15.28,37.39-15.45,37.55l-.61.57Zm-19.48-72.88c.34,4.73,2.59,31.44,10.61,48.29,7.01,14.71,8.93,20.82,9.45,22.83,2.93-2.98,16.33-17.73,14.62-36.27-1.76-19.02-29.97-32.69-34.67-34.84Z"></path></g><g><path class="cls-9" d="m721.87,205.24s16.44,16.72,20.69,43.9"></path><path class="cls-6" d="m742.12,249.21c-4.18-26.73-20.4-43.49-20.56-43.66l.63-.62c.17.17,16.59,17.14,20.81,44.14l-.87.14Z"></path></g></g><g><g><path class="cls-9" d="m764.86,179.31s33.64,14.34,35.6,35.5c1.95,21.16-15.31,37.19-15.31,37.19,0,0-.66-4.78-9.59-23.51-8.92-18.74-10.7-49.18-10.7-49.18Z"></path><path class="cls-6" d="m784.83,252.9l-.12-.83s-.8-5.02-9.55-23.39c-8.86-18.6-10.72-49.03-10.74-49.34l-.04-.71.65.28c1.38.59,33.91,14.69,35.86,35.87,1.95,21.13-15.28,37.39-15.45,37.55l-.61.57Zm-19.48-72.88c.34,4.73,2.59,31.44,10.61,48.29,7.01,14.71,8.93,20.82,9.45,22.83,2.93-2.98,16.33-17.73,14.62-36.27-1.76-19.03-29.97-32.69-34.67-34.84Z"></path></g><g><path class="cls-9" d="m764.86,179.31s16.44,16.72,20.69,43.9"></path><path class="cls-6" d="m785.11,223.28c-4.17-26.71-20.4-43.49-20.56-43.66l.63-.62c.17.17,16.59,17.13,20.81,44.14l-.87.14Z"></path></g></g><g><g><path class="cls-9" d="m724.02,202.61s-21.88-29.3-42.91-26.2c-21.02,3.1-32.52,23.66-32.52,23.66,0,0,4.8-.49,25.11,3.76,20.31,4.25,50.31-1.22,50.31-1.22Z"></path><path class="cls-6" d="m692.08,205.87c-6.35,0-12.79-.43-18.46-1.61-19.91-4.16-24.93-3.75-24.98-3.75l-.83.08.41-.73c.12-.21,11.84-20.79,32.84-23.88,21.03-3.11,42.42,25.17,43.32,26.37l.42.57-.7.13c-.22.04-15.79,2.83-32.02,2.83Zm-42.7-6.26c2.07.02,8.46.45,24.42,3.79,18.26,3.82,44.75-.31,49.43-1.1-3.2-4.06-23.13-28.25-42.05-25.46-18.42,2.72-29.59,19.22-31.79,22.77Z"></path></g><g><path class="cls-9" d="m724.02,202.61s-20.13-12.02-47.54-9.73"></path><path class="cls-6" d="m723.79,202.98c-.2-.12-20.34-11.92-47.28-9.67l-.07-.88c27.24-2.28,47.6,9.67,47.8,9.79l-.45.75Z"></path></g></g><path class="cls-6" d="m840.55,241.34c-.37,0-.71-.23-.83-.6-17.35-52.06-74.1-73.34-74.67-73.55-.46-.17-.69-.67-.52-1.13.17-.46.67-.69,1.13-.52.58.21,58.11,21.77,75.74,74.64.15.46-.1.96-.56,1.11-.09.03-.19.05-.28.05Z"></path><g><g><path class="cls-9" d="m824.12,209.69s35.48-8.87,49.81,6.82c14.33,15.69,10.24,38.89,10.24,38.89,0,0-3.41-3.41-21.83-12.96-18.42-9.55-38.21-32.75-38.21-32.75Z"></path><path class="cls-6" d="m884.46,256.31l-.6-.59s-3.66-3.52-21.73-12.89c-18.29-9.48-38.14-32.62-38.34-32.86l-.46-.54.69-.17c1.46-.36,35.9-8.75,50.24,6.95,14.31,15.67,10.38,39.03,10.34,39.27l-.15.83Zm-59.52-46.35c3.13,3.57,21.04,23.51,37.6,32.1,14.47,7.5,19.69,11.21,21.31,12.5.54-4.15,2.32-23.99-10.24-37.74-12.88-14.11-43.62-7.98-48.67-6.86Z"></path></g><g><path class="cls-9" d="m824.12,209.69s23.2,3.41,42.99,22.52"></path><path class="cls-6" d="m866.8,232.52c-19.46-18.79-42.51-22.36-42.75-22.4l.13-.87c.23.03,23.57,3.65,43.23,22.64l-.61.63Z"></path></g></g><g><g><path class="cls-9" d="m838.53,237.41s33.64,14.34,35.6,35.5c1.95,21.16-15.31,37.19-15.31,37.19,0,0-.66-4.78-9.59-23.51-8.92-18.74-10.7-49.18-10.7-49.18Z"></path><path class="cls-6" d="m858.5,310.99l-.12-.83s-.8-5.02-9.55-23.39c-8.86-18.6-10.72-49.03-10.74-49.34l-.04-.71.65.28c1.38.59,33.91,14.69,35.86,35.87,1.95,21.13-15.28,37.39-15.45,37.55l-.61.57Zm-19.48-72.88c.34,4.73,2.58,31.44,10.61,48.29,7.01,14.71,8.93,20.82,9.45,22.83,2.93-2.98,16.33-17.73,14.62-36.27-1.76-19.02-29.97-32.69-34.67-34.84Z"></path></g><g><path class="cls-9" d="m838.53,237.41s16.44,16.72,20.69,43.9"></path><path class="cls-6" d="m858.78,281.37c-4.17-26.71-20.4-43.49-20.56-43.66l.63-.62c.17.17,16.59,17.14,20.81,44.14l-.87.14Z"></path></g></g><g><g><path class="cls-9" d="m808.09,192.37s-33.64,14.34-35.6,35.5c-1.95,21.16,15.31,37.19,15.31,37.19,0,0,.66-4.78,9.59-23.51,8.92-18.74,10.7-49.18,10.7-49.18Z"></path><path class="cls-6" d="m788.12,265.96l-.61-.57c-.17-.16-17.4-16.42-15.45-37.55,1.95-21.18,34.48-35.28,35.86-35.87l.65-.28-.04.71c-.02.31-1.88,30.74-10.74,49.34-8.75,18.37-9.54,23.34-9.55,23.39l-.12.83Zm19.48-72.88c-4.71,2.15-32.92,15.82-34.67,34.84-1.71,18.54,11.68,33.29,14.62,36.27.51-2.01,2.44-8.12,9.45-22.83,8.02-16.84,10.27-43.55,10.61-48.29Z"></path></g><g><path class="cls-9" d="m808.09,192.37s-16.44,16.72-20.69,43.9"></path><path class="cls-6" d="m787.84,236.34l-.87-.14c4.22-27,20.64-43.97,20.81-44.14l.63.62c-.16.17-16.39,16.94-20.56,43.66Z"></path></g></g><g><g><path class="cls-9" d="m805.95,189.74s21.88-29.3,42.91-26.2c21.02,3.1,32.52,23.66,32.52,23.66,0,0-4.8-.49-25.11,3.76-20.31,4.25-50.31-1.22-50.31-1.22Z"></path><path class="cls-6" d="m837.89,193c-16.23,0-31.8-2.79-32.02-2.83l-.7-.13.42-.57c.9-1.21,22.29-29.48,43.32-26.37,20.99,3.1,32.72,23.68,32.84,23.88l.41.73-.84-.08s-5.06-.41-24.98,3.75c-5.67,1.18-12.12,1.61-18.46,1.61Zm-31.14-3.57c4.68.79,31.16,4.92,49.43,1.1,15.95-3.33,22.34-3.76,24.42-3.79-2.21-3.55-13.38-20.06-31.79-22.77-18.91-2.79-38.85,21.39-42.05,25.46Z"></path></g><g><path class="cls-9" d="m805.95,189.74s20.13-12.02,47.54-9.73"></path><path class="cls-6" d="m806.17,190.12l-.45-.75c.2-.12,20.56-12.07,47.8-9.79l-.07.88c-26.95-2.25-47.08,9.55-47.28,9.67Z"></path></g></g><g><g><path class="cls-9" d="m764.96,178.72s-21.88-29.3-42.91-26.2c-21.02,3.1-32.52,23.66-32.52,23.66,0,0,4.8-.49,25.11,3.76,20.31,4.25,50.31-1.22,50.31-1.22Z"></path><path class="cls-6" d="m733.02,181.99c-6.35,0-12.79-.43-18.46-1.61-19.91-4.16-24.93-3.75-24.98-3.75l-.83.08.41-.73c.12-.21,11.84-20.79,32.84-23.88,21.04-3.1,42.42,25.17,43.32,26.37l.42.57-.7.13c-.22.04-15.79,2.83-32.02,2.83Zm-42.7-6.26c2.07.02,8.46.45,24.42,3.79,18.26,3.82,44.75-.31,49.43-1.1-3.2-4.06-23.14-28.24-42.05-25.46-18.43,2.72-29.59,19.22-31.8,22.77Z"></path></g><g><path class="cls-9" d="m764.96,178.72s-20.13-12.02-47.54-9.73"></path><path class="cls-6" d="m764.73,179.1c-.2-.12-20.34-11.93-47.28-9.67l-.07-.88c27.24-2.28,47.6,9.67,47.8,9.79l-.45.75Z"></path></g></g><g><g><path class="cls-9" d="m763.77,108.88s-36.57-.67-47,17.84c-10.43,18.51-1.23,40.2-1.23,40.2,0,0,2.56-4.09,18.36-17.54,15.8-13.45,29.87-40.5,29.87-40.5Z"></path><path class="cls-6" d="m715.46,167.86l-.33-.77c-.09-.22-9.17-22.1,1.25-40.59,10.44-18.53,45.89-18.1,47.39-18.07h.71s-.33.64-.33.64c-.14.27-14.29,27.28-29.98,40.63-15.5,13.19-18.25,17.4-18.27,17.44l-.45.71Zm47.58-58.55c-5.17.04-36.51.98-45.89,17.62-9.14,16.22-2.95,35.16-1.49,39.08,1.29-1.62,5.55-6.41,17.96-16.97,14.21-12.09,27.18-35.55,29.42-39.73Z"></path></g><g><path class="cls-9" d="m763.77,108.88s-21.84,8.54-36.83,31.6"></path><path class="cls-6" d="m727.32,140.72l-.74-.48c14.89-22.92,36.81-31.69,37.03-31.77l.32.82c-.22.08-21.89,8.76-36.62,31.43Z"></path></g></g><g><g><path class="cls-9" d="m713.75,78.55s-26.66-25.04-46.82-18.31c-20.16,6.72-27.89,28.98-27.89,28.98,0,0,4.64-1.32,25.38-.68,20.74.64,49.33-9.98,49.33-9.98Z"></path><path class="cls-6" d="m638.35,89.87l.27-.79c.08-.22,8.03-22.54,28.17-29.25,20.17-6.72,46.17,17.38,47.26,18.41l.52.49-.67.25c-.29.11-28.9,10.66-49.49,10.01-20.34-.62-25.21.65-25.25.67l-.81.22Zm35.91-30.32c-2.46,0-4.87.34-7.19,1.12-17.67,5.89-25.78,24.09-27.33,27.97,2.04-.34,8.42-1.03,24.7-.53,18.65.57,44.01-8.12,48.47-9.71-3.37-3-21.94-18.85-38.66-18.85Z"></path></g><g><path class="cls-9" d="m713.75,78.55s-21.92-8.33-48.51-1.28"></path><path class="cls-6" d="m713.6,78.97c-.22-.08-22.1-8.19-48.24-1.27l-.22-.85c26.42-7,48.56,1.21,48.78,1.3l-.31.82Z"></path></g></g><g><g><path class="cls-9" d="m731.7,88.28s-36.52-2-47.62,16.12c-11.1,18.12-2.7,40.13-2.7,40.13,0,0,2.71-4,18.99-16.86,16.28-12.86,31.33-39.39,31.33-39.39Z"></path><path class="cls-6" d="m681.27,145.46l-.3-.78c-.08-.22-8.36-22.42,2.73-40.51,11.11-18.13,46.52-16.41,48.02-16.33l.71.04-.35.62c-.15.27-15.27,26.75-31.44,39.51-15.97,12.61-18.87,16.72-18.9,16.76l-.47.69Zm47.44-56.8c-8.89,0-35.26,1.28-44.26,15.97-9.73,15.88-4.23,35.03-2.92,39,1.35-1.57,5.78-6.21,18.56-16.31,14.64-11.57,28.46-34.54,30.85-38.63-.51-.01-1.27-.03-2.24-.03Z"></path></g><g><path class="cls-9" d="m731.7,88.28s-22.14,7.74-37.95,30.24"></path><path class="cls-6" d="m694.1,118.77l-.72-.51c15.72-22.36,37.95-30.32,38.17-30.4l.29.83c-.22.08-22.19,7.96-37.74,30.08Z"></path></g></g><g><g><path class="cls-9" d="m740.78,90.55s7.79-35.73-8.33-49.58c-16.12-13.85-39.19-9.05-39.19-9.05,0,0,3.51,3.31,13.62,21.43,10.11,18.13,33.89,37.2,33.89,37.2Z"></path><path class="cls-6" d="m741.06,91.34l-.55-.44c-.24-.19-23.97-19.34-34-37.33-9.91-17.77-13.5-21.29-13.54-21.33l-.61-.58.82-.17c.23-.05,23.46-4.68,39.56,9.15,16.13,13.86,8.79,48.54,8.47,50.01l-.15.69Zm-46.93-59.13c1.34,1.58,5.21,6.69,13.14,20.92,9.09,16.3,29.56,33.59,33.22,36.61.97-5.08,6.17-35.99-8.33-48.44-14.13-12.14-33.91-9.75-38.04-9.09Z"></path></g><g><path class="cls-9" d="m740.78,90.55s-4.11-23.09-23.81-42.29"></path><path class="cls-6" d="m740.35,90.63c-.04-.23-4.32-23.17-23.68-42.05l.61-.63c19.57,19.08,23.89,42.29,23.93,42.52l-.87.15Z"></path></g></g><path class="cls-6" d="m766.64,152.74c-.2,0-.4-.07-.57-.21-.37-.31-.42-.87-.1-1.24.25-.29,25.12-29.09,74.63-36.8.48-.08.93.25,1,.73.08.48-.25.93-.73,1-48.88,7.6-73.32,35.91-73.56,36.19-.17.21-.42.31-.67.31Z"></path><g><g><path class="cls-9" d="m767.48,149.82s36.57-.67,47,17.84c10.43,18.51,1.23,40.2,1.23,40.2,0,0-2.56-4.09-18.36-17.54-15.8-13.45-29.87-40.5-29.87-40.5Z"></path><path class="cls-6" d="m815.79,208.8l-.45-.71s-2.78-4.25-18.27-17.44c-15.69-13.35-29.83-40.36-29.98-40.63l-.33-.63h.71c1.49-.03,36.95-.47,47.39,18.06,10.42,18.49,1.35,40.37,1.25,40.59l-.33.77Zm-47.58-58.55c2.25,4.18,15.21,27.64,29.42,39.73,12.41,10.56,16.67,15.35,17.96,16.97,1.45-3.92,7.65-22.86-1.49-39.08-9.38-16.64-40.71-17.58-45.89-17.62Z"></path></g><g><path class="cls-9" d="m767.48,149.82s21.84,8.54,36.83,31.6"></path><path class="cls-6" d="m803.94,181.66c-14.73-22.67-36.4-31.35-36.62-31.43l.32-.82c.22.09,22.14,8.86,37.03,31.77l-.74.48Z"></path></g></g><g><g><path class="cls-9" d="m817.5,119.49s26.66-25.04,46.82-18.31c20.16,6.72,27.89,28.98,27.89,28.98,0,0-4.64-1.32-25.38-.68-20.74.64-49.33-9.98-49.33-9.98Z"></path><path class="cls-6" d="m892.91,130.81l-.81-.22s-4.92-1.29-25.25-.67c-20.64.63-49.21-9.9-49.49-10.01l-.67-.25.52-.49c1.1-1.03,27.09-25.13,47.26-18.41,20.13,6.71,28.09,29.02,28.17,29.25l.28.79Zm-15.66-1.94c8.77,0,12.74.45,14.28.71-1.55-3.88-9.67-22.08-27.33-27.97-18.12-6.05-41.98,14.29-45.84,17.73,4.47,1.59,29.83,10.28,48.47,9.71,4.06-.12,7.51-.17,10.42-.17Z"></path></g><g><path class="cls-9" d="m817.5,119.49s21.92-8.33,48.51-1.28"></path><path class="cls-6" d="m817.66,119.91l-.31-.82c.22-.08,22.36-8.29,48.78-1.3l-.22.85c-26.14-6.92-48.02,1.19-48.24,1.27Z"></path></g></g><g><g><path class="cls-9" d="m799.56,129.22s36.52-2,47.62,16.12c11.1,18.12,2.7,40.13,2.7,40.13,0,0-2.7-4-18.99-16.86-16.28-12.86-31.33-39.39-31.33-39.39Z"></path><path class="cls-6" d="m849.99,186.41l-.47-.69s-2.93-4.15-18.9-16.76c-16.17-12.77-31.29-39.25-31.44-39.51l-.35-.62.71-.04c1.51-.08,36.91-1.81,48.02,16.33,11.09,18.1,2.82,40.29,2.73,40.51l-.3.78Zm-49.68-56.77c2.4,4.09,16.21,27.06,30.85,38.63,12.79,10.1,17.22,14.73,18.56,16.31,1.31-3.97,6.81-23.12-2.92-39-9.98-16.29-41.31-16.08-46.5-15.94Z"></path></g><g><path class="cls-9" d="m799.56,129.22s22.14,7.74,37.95,30.24"></path><path class="cls-6" d="m837.15,159.71c-15.56-22.13-37.52-30-37.74-30.08l.29-.83c.22.08,22.45,8.04,38.17,30.4l-.72.51Z"></path></g></g><g><g><path class="cls-9" d="m790.48,131.49s-7.79-35.73,8.33-49.58c16.12-13.85,39.19-9.05,39.19-9.05,0,0-3.51,3.31-13.62,21.43-10.11,18.13-33.89,37.2-33.89,37.2Z"></path><path class="cls-6" d="m790.2,132.28l-.15-.69c-.32-1.47-7.66-36.15,8.47-50.01,16.1-13.83,39.33-9.2,39.56-9.15l.82.17-.61.58s-3.63,3.55-13.54,21.33c-10.03,17.99-33.76,37.14-34,37.33l-.55.44Zm38.35-59.76c-8.13,0-20.05,1.64-29.46,9.72-14.5,12.45-9.3,43.36-8.33,48.44,3.66-3.02,24.14-20.32,33.22-36.61,7.94-14.23,11.8-19.34,13.14-20.92-1.38-.22-4.5-.63-8.58-.63Z"></path></g><g><path class="cls-9" d="m790.48,131.49s4.11-23.09,23.81-42.29"></path><path class="cls-6" d="m790.91,131.57l-.87-.15c.04-.23,4.36-23.45,23.93-42.52l.61.63c-19.37,18.88-23.64,41.82-23.68,42.05Z"></path></g></g><path class="cls-6" d="m765.27,81.1c-.2,0-.4-.07-.57-.21-.37-.31-.42-.87-.1-1.24.25-.29,25.12-29.09,74.63-36.8.47-.08.93.25,1,.73.08.48-.25.93-.73,1-48.83,7.6-73.32,35.91-73.56,36.19-.17.21-.42.31-.67.31Z"></path><g><g><path class="cls-9" d="m766.12,78.17s36.57-.67,47,17.84c10.43,18.51,1.23,40.2,1.23,40.2,0,0-2.56-4.09-18.36-17.54-15.8-13.45-29.87-40.5-29.87-40.5Z"></path><path class="cls-6" d="m814.43,137.16l-.45-.71s-2.78-4.25-18.28-17.44c-15.69-13.35-29.83-40.36-29.98-40.63l-.33-.63h.71c1.5-.03,36.95-.47,47.39,18.06,10.42,18.49,1.35,40.37,1.25,40.59l-.33.77Zm-47.58-58.55c2.25,4.18,15.21,27.64,29.42,39.73,12.41,10.56,16.67,15.35,17.96,16.97,1.45-3.92,7.65-22.86-1.49-39.08-9.38-16.64-40.71-17.58-45.89-17.62Z"></path></g><g><path class="cls-9" d="m766.12,78.17s21.84,8.54,36.83,31.6"></path><path class="cls-6" d="m802.57,110.01c-14.73-22.67-36.4-31.35-36.62-31.43l.32-.82c.22.09,22.14,8.86,37.04,31.77l-.74.48Z"></path></g></g><g><g><path class="cls-9" d="m766.91,77.06s-22.08-29.16-13.27-48.49c8.81-19.34,31.76-24.67,31.76-24.67,0,0-1.8,4.48-3.36,25.17-1.56,20.69-15.13,48-15.13,48Z"></path><path class="cls-6" d="m766.99,77.89l-.43-.57c-.91-1.2-22.14-29.59-13.32-48.94,8.8-19.31,31.83-24.87,32.06-24.92l.82-.19-.31.78s-1.8,4.75-3.33,25.04c-1.55,20.54-15.04,47.89-15.18,48.16l-.32.64Zm17.75-73.37c-4.02,1.13-22.98,7.28-30.7,24.23-7.92,17.38,9.77,43.26,12.79,47.46,2.05-4.28,13.37-28.57,14.77-47.18,1.22-16.25,2.59-22.51,3.14-24.51Z"></path></g><g><path class="cls-9" d="m766.91,77.06s-5.96-22.68,3.84-48.37"></path><path class="cls-6" d="m766.48,77.17c-.06-.23-5.89-23.11,3.86-48.64l.82.31c-9.65,25.27-3.89,47.88-3.83,48.11l-.85.22Z"></path></g></g><g><g><path class="cls-9" d="m816.14,47.85s26.66-25.04,46.82-18.31c20.16,6.72,27.89,28.98,27.89,28.98,0,0-4.64-1.32-25.38-.68-20.74.64-49.33-9.98-49.33-9.98Z"></path><path class="cls-6" d="m891.54,59.16l-.81-.22s-4.92-1.29-25.25-.67c-20.62.64-49.21-9.9-49.49-10.01l-.67-.25.52-.49c1.1-1.03,27.09-25.13,47.26-18.41,20.13,6.71,28.09,29.02,28.17,29.25l.28.79Zm-15.66-1.94c8.77,0,12.74.45,14.28.71-1.55-3.88-9.67-22.08-27.33-27.97-18.13-6.04-41.98,14.29-45.85,17.73,4.47,1.59,29.81,10.26,48.48,9.71,4.06-.12,7.51-.17,10.42-.17Z"></path></g><g><path class="cls-9" d="m816.14,47.85s21.92-8.33,48.51-1.28"></path><path class="cls-6" d="m816.3,48.26l-.31-.82c.22-.08,22.36-8.3,48.78-1.3l-.22.85c-26.14-6.92-48.03,1.19-48.24,1.27Z"></path></g></g><g><g><path class="cls-9" d="m798.19,57.57s36.52-2,47.62,16.12c11.1,18.12,2.7,40.13,2.7,40.13,0,0-2.71-4-18.99-16.86-16.28-12.86-31.33-39.39-31.33-39.39Z"></path><path class="cls-6" d="m848.62,114.76l-.47-.69s-2.93-4.15-18.9-16.76c-16.17-12.77-31.29-39.25-31.44-39.51l-.35-.62.71-.04c1.51-.08,36.91-1.81,48.02,16.33,11.09,18.1,2.82,40.29,2.73,40.51l-.3.78Zm-49.68-56.77c2.4,4.09,16.21,27.06,30.85,38.63,12.79,10.1,17.22,14.73,18.56,16.31,1.31-3.97,6.81-23.12-2.92-39-9.98-16.29-41.31-16.08-46.5-15.94Z"></path></g><g><path class="cls-9" d="m798.19,57.57s22.14,7.74,37.95,30.24"></path><path class="cls-6" d="m835.79,88.07c-15.56-22.13-37.52-30-37.74-30.08l.29-.83c.22.08,22.45,8.04,38.17,30.4l-.72.51Z"></path></g></g><g><g><path class="cls-9" d="m789.11,59.85s-7.79-35.73,8.33-49.58c16.12-13.85,39.18-9.05,39.18-9.05,0,0-3.51,3.31-13.62,21.43-10.11,18.13-33.89,37.2-33.89,37.2Z"></path><path class="cls-6" d="m788.83,60.64l-.15-.69c-.32-1.47-7.66-36.15,8.47-50.01,16.1-13.83,39.33-9.2,39.56-9.15l.82.17-.61.58s-3.63,3.55-13.54,21.33c-10.03,17.99-33.76,37.14-34,37.33l-.55.44ZM827.19.88c-8.13,0-20.05,1.64-29.46,9.72-14.5,12.45-9.3,43.36-8.33,48.44,3.66-3.02,24.13-20.32,33.22-36.61,7.93-14.23,11.8-19.34,13.14-20.92-1.38-.22-4.5-.63-8.58-.63Z"></path></g><g><path class="cls-9" d="m789.11,59.85s4.11-23.09,23.81-42.29"></path><path class="cls-6" d="m789.55,59.93l-.87-.15c.04-.23,4.36-23.45,23.93-42.52l.61.63c-19.37,18.88-23.64,41.82-23.68,42.05Z"></path></g></g><g><g><path class="cls-9" d="m764.45,114.23s16.06-32.86,3.7-50.14c-12.37-17.28-35.91-18.11-35.91-18.11,0,0,2.63,4.05,8.13,24.06,5.51,20.01,24.08,44.19,24.08,44.19Z"></path><path class="cls-6" d="m764.53,115.06l-.43-.56c-.19-.24-18.69-24.48-24.15-44.34-5.43-19.71-8.05-23.89-8.08-23.93l-.46-.71.84.03c.24,0,23.9,1.03,36.25,18.29,12.38,17.3-3,49.24-3.66,50.59l-.31.64Zm-31.53-68.59c.93,1.85,3.47,7.74,7.79,23.45,4.95,17.99,20.73,39.66,23.56,43.46,2.15-4.71,14.55-33.5,3.43-49.03-10.83-15.14-30.62-17.53-34.79-17.87Z"></path></g><g><path class="cls-9" d="m764.45,114.23s1.49-23.4-13.07-46.73"></path><path class="cls-6" d="m764.88,114.26l-.88-.06c.01-.23,1.31-23.54-13.01-46.47l.75-.47c14.47,23.18,13.15,46.76,13.14,46.99Z"></path></g></g></g><g><rect class="cls-3" x="734.67" y="394.61" width="137.91" height="260.49" rx="6.75" ry="6.75" transform="translate(260.81 -266.75) rotate(22.41)"></rect><g><rect class="cls-1" x="739.24" y="394.61" width="137.91" height="260.49" rx="6.75" ry="6.75" transform="translate(261.16 -268.49) rotate(22.41)"></rect><path class="cls-6" d="m813.79,667.8c-2.15,0-4.3-.42-6.35-1.27l-98.59-40.66c-4.11-1.69-7.32-4.89-9.02-8.99-1.71-4.11-1.71-8.63-.02-12.74l87.4-211.91c3.5-8.49,13.25-12.55,21.74-9.04l98.59,40.66c8.49,3.5,12.54,13.25,9.05,21.74l-87.4,211.91c-1.7,4.11-4.89,7.32-9,9.02-2.06.86-4.23,1.29-6.39,1.29Zm-11.17-283.84c-5.75,0-11.21,3.41-13.53,9.04l-87.4,211.91c-1.49,3.61-1.48,7.58.02,11.18s4.31,6.41,7.92,7.9l98.59,40.66h0c3.61,1.49,7.58,1.48,11.18-.02,3.6-1.5,6.41-4.31,7.9-7.92l87.4-211.91c3.07-7.45-.49-16.01-7.94-19.08l-98.59-40.66c-1.82-.75-3.7-1.1-5.55-1.1Z"></path></g><rect class="cls-8" x="745.37" y="423.22" width="125.65" height="203.28" transform="translate(261.16 -268.49) rotate(22.41)"></rect><g><path class="cls-9" d="m738.4,562.94c-.44,0-.84-.28-.97-.72-.16-.54.14-1.11.68-1.27l30.53-9.29c.53-.16,1.11.14,1.27.68s-.14,1.11-.68,1.27l-30.53,9.29c-.1.03-.2.05-.3.05Z"></path><path class="cls-9" d="m778.28,550.8c-.44,0-.84-.28-.97-.72-.16-.54.14-1.11.68-1.27l96.51-29.37c.54-.15,1.11.14,1.27.68s-.14,1.11-.68,1.27l-96.51,29.37c-.1.03-.2.05-.3.05Z"></path><path class="cls-9" d="m818.23,528.21c-.44,0-.84-.28-.97-.73-.16-.54.14-1.11.68-1.27l6.75-2.03c.54-.16,1.11.14,1.27.68.16.54-.14,1.11-.68,1.27l-6.75,2.03c-.1.03-.2.05-.29.05Z"></path><path class="cls-9" d="m750.26,548.71c-.44,0-.84-.28-.97-.73-.16-.54.14-1.11.68-1.27l59.7-18.01c.54-.16,1.11.14,1.27.68.16.54-.14,1.11-.68,1.27l-59.7,18.01c-.1.03-.2.05-.29.05Z"></path></g><path class="cls-6" d="m865,422.95l-25.25-10.42c-.95-.39-1.4-1.48-1.01-2.43h0c.39-.95,1.48-1.4,2.43-1.01l25.25,10.42c.95.39,1.4,1.48,1.01,2.43h0c-.39.95-1.48,1.4-2.43,1.01Z"></path><g><path class="cls-1" d="m771.95,632.27c1.57-3.8-.24-8.16-4.05-9.73-3.8-1.57-8.16.24-9.73,4.05-1.57,3.8.24,8.16,4.05,9.73,3.8,1.57,8.16-.24,9.73-4.05Z"></path><path class="cls-6" d="m765.05,637.6c-1.04,0-2.09-.2-3.1-.62-2.02-.83-3.59-2.4-4.43-4.41-.84-2.01-.84-4.23-.01-6.25,1.72-4.16,6.5-6.15,10.66-4.44,4.16,1.72,6.15,6.5,4.44,10.66h0c-1.3,3.15-4.35,5.05-7.56,5.05Zm.02-14.9c-2.65,0-5.16,1.57-6.23,4.17-1.42,3.43.22,7.38,3.66,8.79,3.43,1.41,7.38-.23,8.79-3.66h0c1.42-3.43-.23-7.38-3.66-8.79-.84-.34-1.7-.51-2.56-.51Z"></path></g><rect class="cls-8" x="761.29" y="625.66" width="7.55" height="7.55" transform="translate(297.77 -244.15) rotate(22.41)"></rect></g><g><rect class="cls-9" x="300.68" y="297.37" width="322.58" height="442.9" transform="translate(-103.74 115.63) rotate(-12.84)"></rect><g><rect class="cls-1" x="308.01" y="307.43" width="307.92" height="422.77" transform="translate(-103.74 115.63) rotate(-12.84)"></rect><path class="cls-6" d="m358.83,760.15c-.46,0-.88-.32-.99-.79l-93.95-412.2c-.13-.55.22-1.09.77-1.22l300.22-68.42c.26-.07.54-.02.77.13.23.14.39.37.45.64l93.95,412.21c.06.26.01.54-.13.77-.14.23-.37.39-.64.45l-300.22,68.42c-.08.02-.15.03-.23.03Zm-92.73-412.46l93.49,410.22,298.23-67.97-93.49-410.22-298.23,67.97Z"></path></g><g><line class="cls-5" x1="473.73" y1="337.05" x2="552.81" y2="317.28"></line><line class="cls-5" x1="300.92" y1="380.25" x2="336.81" y2="371.28"></line><g><line class="cls-5" x1="561.12" y1="402.35" x2="573.05" y2="399.37"></line><line class="cls-5" x1="506.7" y1="415.96" x2="554.49" y2="404.01"></line><line class="cls-5" x1="478.93" y1="422.9" x2="498.81" y2="417.93"></line><line class="cls-5" x1="422.62" y1="436.98" x2="470.1" y2="425.11"></line><line class="cls-5" x1="386.34" y1="446.05" x2="414.26" y2="439.07"></line><line class="cls-5" x1="321.16" y1="462.34" x2="377.5" y2="448.26"></line><line class="cls-5" x1="542.45" y1="434.29" x2="583.17" y2="424.11"></line><line class="cls-5" x1="458.06" y1="455.39" x2="533.15" y2="436.61"></line><line class="cls-5" x1="400.48" y1="469.78" x2="444.49" y2="458.78"></line><line class="cls-5" x1="331.28" y1="487.08" x2="392.44" y2="471.79"></line><line class="cls-5" x1="561.53" y1="457.63" x2="587.67" y2="451.1"></line><line class="cls-5" x1="489.6" y1="475.61" x2="553.33" y2="459.68"></line><line class="cls-5" x1="473.35" y1="479.68" x2="483.6" y2="477.11"></line><line class="cls-5" x1="424.92" y1="491.78" x2="466.09" y2="481.49"></line><line class="cls-5" x1="350.31" y1="510.44" x2="418.46" y2="493.4"></line><line class="cls-5" x1="335.78" y1="514.07" x2="344.32" y2="511.93"></line><line class="cls-5" x1="538.76" y1="490.59" x2="593.29" y2="476.96"></line><line class="cls-5" x1="447.74" y1="513.35" x2="528.98" y2="493.04"></line><line class="cls-5" x1="425.03" y1="519.02" x2="439.23" y2="515.48"></line><line class="cls-5" x1="341.4" y1="539.93" x2="413.99" y2="521.79"></line><line class="cls-5" x1="482.71" y1="531.87" x2="490.96" y2="529.81"></line><line class="cls-5" x1="415.83" y1="548.59" x2="474.51" y2="533.92"></line><line class="cls-5" x1="347.02" y1="565.8" x2="406.36" y2="550.96"></line></g></g></g><g><path class="cls-3" d="m688.93,696.29c-2.21-26.57-18.82-86.36-40.96-94.11-13.71-4.8-48.31,9.8-72.7,21.62,1.95-9.03,3.44-17.97,3.44-17.97l-67.91-70.86.96,9.19,24.25,63.78s-9.49,10.54-7.38,14.23c2.11,3.69,15.81,6.33,15.81,6.33,0,0-4.22,1.05-1.58,7.91,2.64,6.85,8.43,13.71,8.43,13.71,0,0,.28-.12.73-.33,1.19,1.27,2.65,2.6,4.54,4.02,13.29,9.96,16.11,10.39,16.11,10.39,0,0,5.54-1.11,7.75,27.68,2.21,28.79-6.64,38.75,7.75,56.46,14.39,17.71,120.68,138.39,120.68,138.39,0,0-17.71-163.86-19.93-190.43Z"></path><g><g><g><path class="cls-1" d="m571.63,555.48s-13.04,14.23-23.71,21.34c-10.67,7.11-18.11,16.52-8.3,21.34,5.89,2.89,14.23-1.19,14.23-1.19,0,0-13.04,3.56-15.41,15.41-2.37,11.86,23.71,7.11,23.71,7.11,0,0-18.97,13.04-13.04,17.79,5.93,4.74,17.79,1.19,23.71,1.19s35.57-18.97,42.68-18.97,21.34,15.41,21.34,27.27,18.97,10.67,21.34-26.09c2.37-36.76-7.11-67.58-22.53-77.07-15.41-9.49-64.03,11.86-64.03,11.86Z"></path><path class="cls-6" d="m642.29,654.49c-.08,0-.16,0-.24,0-3.73-.12-6.23-3.22-6.23-7.71,0-11.27-13.94-26.25-20.32-26.25-3.47,0-13.6,5.32-22.55,10.02-9.15,4.8-17.06,8.95-20.14,8.95-1.54,0-3.59.26-5.75.54-6.21.79-13.94,1.78-18.6-1.95-1.05-.84-1.57-1.97-1.53-3.29.16-4.41,7.04-10.4,11.35-13.73-5.6.61-15.43,1.02-19.31-2.94-1.51-1.53-2.03-3.53-1.55-5.94,1.13-5.63,4.48-9.47,7.84-11.99-2.05.06-4.18-.19-6.1-1.13-3.23-1.59-4.96-3.76-5.14-6.45-.44-6.72,9.17-13.89,13.32-16.66,10.44-6.96,23.4-21.04,23.53-21.18.1-.1.21-.19.34-.24,2.01-.88,49.28-21.45,64.97-11.79,16.13,9.93,25.38,41.27,23.01,78-1.5,23.25-9.77,33.73-16.91,33.73Zm-26.79-36c8.1,0,22.36,16.35,22.36,28.29,0,3.36,1.67,5.59,4.26,5.67.05,0,.1,0,.15,0,5.22,0,13.38-8.4,14.89-31.82,2.29-35.43-6.78-66.74-22.04-76.14-14.31-8.81-59.54,10.39-62.89,11.84-1.48,1.6-13.71,14.65-23.75,21.34-8.03,5.36-12.68,10.9-12.42,14.83.13,1.91,1.47,3.51,4,4.75,3.26,1.6,7.46.83,10.27-.03,1.79-.82,3.08-1.18,3.24-1.23.5-.13,1.04.13,1.22.62s-.03,1.04-.51,1.28c-.13.06-1.33.64-3.11,1.21-3.83,1.77-10.21,5.82-11.75,13.49-.35,1.73-.02,3.07,1,4.11,3.9,3.98,16.87,2.65,21.53,1.8.47-.09.94.17,1.12.61s.03.96-.37,1.23c-3.77,2.59-13.59,10.26-13.75,14.53-.02.67.22,1.18.76,1.62,3.99,3.19,11.24,2.26,17.06,1.52,2.23-.28,4.34-.55,6.01-.55,2.58,0,11.02-4.43,19.19-8.72,10.04-5.27,19.52-10.25,23.49-10.25Z"></path></g><path class="cls-5" d="m564.52,595.79l47.32-17.68s20.77-4.52,35.68,20.05"></path><path class="cls-5" d="m572.82,610.02l42.68-7.11s18.97-1.19,30.83,21.34"></path></g><g><path class="cls-1" d="m853.77,865.54c-26.08-24.98-136.4-120.97-137.49-127.46-1.19-7.11-5.93-90.11-5.93-101.97s-23.71-40.31-23.71-40.31c0,0-9.73-13.95-14.48-37.67-4.74-23.71-26.52-33.46-38.38-32.27-11.86,1.19-44.37,4.73-57.41,14.21-13.04,9.49-24.9,21.34-13.04,24.9,19.69,5.9,51.92-20.35,67.47-2.21,7.11,8.3,15.53,44.89,16.71,49.63,0,0,1.77,8.24-4.45,13.78-6.23,5.53-18.08,12.31-18.08,12.31,0,0-19.28,5.68-27.59,6.37-8.3.69-8.3,40.82.69,52.58,8.99,11.76,22.14,66.42,33.21,80.25,10.55,13.19,104.96,154.41,104.96,154.41"></path><path class="cls-6" d="m736.27,933.11c-.33,0-.65-.16-.85-.45-.94-1.41-94.51-141.33-104.91-154.34-5.98-7.47-12.4-26.18-18.6-44.27-5.4-15.74-10.5-30.6-14.62-35.99-7.42-9.71-9.09-39.42-4.35-50.11,1.14-2.58,2.62-3.96,4.39-4.11,7.78-.65,25.66-5.83,27.27-6.3,1.17-.68,12.03-7,17.8-12.13,5.72-5.08,4.15-12.72,4.13-12.8l-.41-1.68c-8.01-33.1-13.17-44.1-16.08-47.5-8.6-10.04-22.49-5.82-37.2-1.36-10.44,3.17-21.24,6.44-29.78,3.88-3.28-.98-5.14-2.66-5.54-4.98-1.06-6.2,9.35-15.23,18.27-21.72,9.11-6.63,28.6-11.48,57.91-14.4,13.2-1.3,34.81,9.71,39.48,33.09,4.64,23.2,14.22,37.15,14.31,37.28.92,1.11,23.9,28.81,23.9,40.9s4.81,95.16,5.91,101.8c1.17,4.34,50.92,48.96,87.25,81.55,20.99,18.82,40.82,36.61,49.94,45.35.41.39.42,1.03.03,1.44-.39.4-1.04.42-1.44.03-9.1-8.71-28.91-26.48-49.89-45.3-52.63-47.21-87.19-78.47-87.9-82.73-1.11-6.67-5.94-89.72-5.94-102.14,0-11.35-23.24-39.38-23.48-39.66-.15-.21-9.96-14.47-14.69-38.12-4.82-24.08-27.03-32.47-37.28-31.46-28.95,2.89-48.1,7.61-56.92,14.02-11.77,8.56-18.13,15.75-17.46,19.73.25,1.49,1.64,2.63,4.11,3.37,7.95,2.38,18.45-.8,28.61-3.88,14.69-4.45,29.87-9.06,39.34,1.99,4.45,5.19,10.01,21.46,16.51,48.35l.41,1.7c.08.39,1.83,8.92-4.76,14.78-6.23,5.54-17.76,12.15-18.25,12.43-.07.04-.14.07-.22.09-.79.23-19.48,5.72-27.79,6.41-1.21.1-2.13,1.63-2.7,2.9-4.55,10.26-2.99,38.76,4.11,48.04,4.32,5.66,9.47,20.67,14.93,36.57,6.15,17.93,12.51,36.46,18.27,43.66,10.46,13.07,104.07,153.07,105.02,154.48.31.47.19,1.1-.28,1.41-.17.12-.37.17-.57.17Z"></path></g><g><path class="cls-4" d="m506.16,528.93c.37-.39.98-.47,1.43-.15l5.72,2.57c1,.69,1.24,2.06.55,3.06-.69,1-2.06,1.24-3.06.55l-4.47-4.38c-.5-.35-.62-1.03-.27-1.53.03-.04.06-.09.1-.12Z"></path><path class="cls-9" d="m511.17,532.18c1.68-1.79,4.46-2.13,6.53-.69l15.19,7.84,149.16,98.12c5.35,3.72,6.67,11.07,2.95,16.41-3.72,5.36-11.07,6.67-16.41,2.95l-144.77-106.8-11.85-10.28c-2.28-1.58-2.84-4.71-1.26-6.99.14-.2.3-.39.46-.57Z"></path><path class="cls-8" d="m682.05,637.46l-43.04-28.31c-6.85,2.23-11.76,8.2-11.76,15.25,0,.7.06,1.38.16,2.06l41.18,30.38c5.35,3.72,12.7,2.41,16.41-2.95,3.72-5.35,2.4-12.7-2.95-16.41Z"></path></g><g><g><g><path class="cls-1" d="m627.84,771.46c-46.86-52.98-39.04-82.2-46.16-91.68-7.11-9.49-11.34-18.4-18.46-39.74-7.11-21.34-11.75-38.31-11.75-56.09s15.28-20.86,27.14-1.89c11.86,18.97,26.22,48.13,26.22,48.13,0,0,9.49,11.86,28.46,8.3"></path><path class="cls-6" d="m627.84,772.47c-.28,0-.56-.12-.76-.34-34.16-38.62-39.36-64.38-42.46-79.77-1.12-5.54-1.93-9.55-3.75-11.97-7.26-9.68-11.61-19.03-18.61-40.03-7.48-22.43-11.81-38.85-11.81-56.41,0-8.14,3.17-13.91,8.47-15.43,6.49-1.87,14.37,3.12,20.55,13,11.75,18.8,26.13,47.93,26.27,48.22.26.28,9.26,11.15,27.36,7.75.55-.11,1.08.26,1.19.81.1.55-.26,1.09-.81,1.19-19.34,3.63-29.04-8.16-29.44-8.67-.26-.48-14.59-29.52-26.29-48.23-6.78-10.85-13.88-13.38-18.26-12.12-4.38,1.26-6.99,6.29-6.99,13.47,0,17.28,4.29,33.54,11.7,55.77,7,21.01,11.11,29.86,18.3,39.45,2.09,2.79,2.94,6.98,4.11,12.79,3.07,15.19,8.2,40.62,41.99,78.83.37.42.33,1.06-.09,1.44-.19.17-.44.26-.67.26Z"></path></g><path class="cls-5" d="m604.83,630.18s13.22,12.56,19.42,22.89"></path><g><path class="cls-1" d="m566.34,576.51l3.96,7.93s-.9,0-7.22,3.61c-6.32,3.61-9.23,8.93-9.23,8.93,0,0-6.12-17.06-.7-22.48,1.63-1.63,3.33-2.36,4.92-2.58,3.42-.49,6.72,1.5,8.27,4.59Z"></path><path class="cls-6" d="m553.85,598s-.05,0-.08,0c-.4-.03-.74-.29-.88-.67-.26-.72-6.27-17.74-.46-23.54,1.61-1.61,3.46-2.58,5.5-2.87,3.77-.53,7.52,1.53,9.33,5.15l3.96,7.92c.16.31.14.69-.05.99-.19.3-.51.48-.86.48.08,0-1.13.28-6.72,3.48-5.98,3.41-8.82,8.49-8.84,8.54-.18.33-.52.53-.89.53Zm5.23-25.14c-.29,0-.58.02-.87.06-1.59.23-3.05,1-4.35,2.29-3.58,3.58-1.4,13.9.29,19.44,1.44-1.95,4.19-5.08,8.42-7.5,2.14-1.22,4.68-2.61,6.3-3.31l-3.45-6.89c-1.25-2.5-3.78-4.1-6.35-4.1Z"></path></g></g><g><path class="cls-5" d="m583.27,619.66c.62-.08,1.26-.16,1.92-.22"></path><path class="cls-5" d="m565.52,629.51s1.08-6.49,14.13-9.23"></path><path class="cls-5" d="m579.7,624.93s-.92,2.75-10.07,6.41"></path><path class="cls-5" d="m579.32,616.23s-7.93,1.19-12.7,5.16"></path></g></g></g></g><g><path class="cls-3" d="m327.46,451.78s-8.32,23.08-11.64,28.61c-3.32,5.54-21.04,26.57-24.36,32.11-3.32,5.54-9.96,23.25-9.96,23.25l53.78-13.6s-15.03,22.45-23.89,33.53c-8.86,11.07-27.68,34.32-27.68,37.64s-4.43,16.61-4.43,16.61l25.46,18.82,52.04-18.82,21.04-7.75s-42.07,26.57-55.36,39.86c-13.29,13.29-59.79,39.86-71.96,48.71-12.18,8.86-37.64,13.29-47.61,15.5-9.96,2.21-97.43,73.07-97.43,73.07l126.21-259.07,36.54-60.89,32.11-23.25-3.32,36.54,30.46-20.86Z"></path><g><g><path class="cls-1" d="m55,833.11l132.9-136.76s12.63-1.2,33.08-7.82c20.45-6.62,26.46-8.42,36.09-15.64,9.62-7.22,49.32-28.27,66.16-39.1,16.84-10.83,46.31-22.86,51.73-27.67,5.41-4.81,1.2-10.83-13.23-13.83-14.44-3.01-28.87.6-48.12,9.02-19.25,8.42-39.1,15.64-38.49,11.43.6-4.21,4.21-25.26,7.82-32.48,3.61-7.22,39.72-46.08,40.32-47.89.6-1.8,4.81-3.61,12.03-10.23,7.22-6.62,18.65-14.44,20.45-25.86,1.8-11.43-7.22-7.22-10.83-5.41-3.61,1.8-28.87,12.63-35.49,16.84-6.62,4.21-45.23,44.93-45.23,44.93l27.19-56.96s6.01-5.41,9.62-10.23c3.61-4.81,25.26-28.27,26.46-33.68,1.2-5.41-4.21-12.03-10.83-10.23-6.62,1.8-27.41,20.18-34.28,25.26-14.27,10.54-37.29,50.52-37.29,50.52l25.26-46.31s19.25-17.44,24.06-22.86c4.81-5.41,10.61-17.4,5.41-22.86-5.52-5.79-17.48,3.96-26.46,13.23-8.27,8.53-20.45,19.25-20.45,19.25,0,0,7.22-8.42,5.41-15.64-1.8-7.22-15.64,3.01-19.85,4.21-4.21,1.2-40.3,33.08-45.71,37.29-5.41,4.21-16.71,38.76-16.71,38.76l-43.71,91.17L1.02,708.06"></path><path class="cls-6" d="m55,834.13c-.26,0-.51-.09-.71-.29-.4-.39-.41-1.04-.02-1.44l132.91-136.76c.17-.17.39-.28.63-.3.13-.01,12.78-1.28,32.86-7.78l1.95-.63c18.95-6.13,24.67-7.97,33.84-14.85,5.26-3.94,19.09-11.8,33.74-20.12,12.18-6.91,24.77-14.07,32.48-19.02,8.85-5.69,20.95-11.6,31.63-16.82,9.39-4.59,17.5-8.55,19.98-10.75,1.59-1.41,2.2-2.85,1.82-4.27-.84-3.16-6.29-6.08-14.58-7.8-13.18-2.74-26.49-.23-47.5,8.96-15.99,7-35.76,14.78-39.2,12.18-.57-.43-.82-1.08-.72-1.82.56-3.9,4.18-25.31,7.92-32.79,2.32-4.64,16.8-20.98,28.44-34.11,5.86-6.62,11.4-12.86,11.86-13.72.38-1.14,1.65-2.09,3.96-3.8,2.03-1.5,4.8-3.56,8.31-6.77,1.23-1.12,2.58-2.28,3.98-3.49,6.9-5.93,14.71-12.65,16.16-21.78.49-3.12.17-5.2-.95-6.02-2.05-1.5-6.84.89-8.42,1.68-1.03.51-3.65,1.69-7.27,3.31-8.76,3.92-23.42,10.49-28.12,13.48-6.44,4.09-44.66,44.36-45.04,44.77-.34.37-.9.42-1.32.14-.41-.28-.56-.83-.34-1.28l27.19-56.96c.06-.12.14-.23.24-.32.06-.05,5.98-5.4,9.49-10.08,1.05-1.4,3.5-4.24,6.61-7.84,7.06-8.17,18.87-21.83,19.67-25.46.53-2.4-.44-5.2-2.47-7.14-1.98-1.89-4.56-2.58-7.09-1.88-4.56,1.24-16.68,11.14-25.53,18.37-3.48,2.84-6.48,5.3-8.42,6.72-13.93,10.3-36.78,49.82-37.01,50.21-.28.48-.89.65-1.38.38-.49-.27-.66-.89-.4-1.38l25.26-46.31c.05-.1.13-.19.21-.27.19-.17,19.26-17.47,23.98-22.78,4.48-5.05,10.14-16.54,5.44-21.47-.91-.95-2.03-1.42-3.45-1.43h-.03c-4.71,0-12.35,5.2-21.52,14.66-8.21,8.46-20.39,19.2-20.51,19.3-.4.35-1.01.34-1.39-.04-.38-.38-.41-.98-.06-1.39.07-.08,6.85-8.11,5.2-14.73-.26-1.06-.78-1.4-1.15-1.56-2.5-1.12-8.42,2.02-12.34,4.1-2.09,1.11-3.89,2.06-5.09,2.4-2.75.79-22.38,17.58-34.11,27.62-5.38,4.6-9.63,8.24-11.25,9.5-4.24,3.29-13.25,28.74-16.37,38.27l-43.76,91.3c-.07.15-.18.29-.32.39L1.61,708.89c-.46.32-1.09.22-1.42-.23-.33-.46-.22-1.09.23-1.42l131.08-94.31,43.6-90.94c1.12-3.44,11.51-34.85,17.01-39.12,1.58-1.23,5.82-4.85,11.18-9.44,17.34-14.84,31.94-27.19,34.88-28.03,1-.28,2.8-1.24,4.7-2.25,4.78-2.53,10.72-5.66,14.13-4.16,1.17.52,1.94,1.5,2.29,2.93.87,3.49-.17,7.18-1.58,10.18,4.27-3.89,10.23-9.45,14.9-14.26,6.76-6.98,16.24-15.28,22.98-15.28h.04c1.97,0,3.62.7,4.91,2.06,5.9,6.2-.6,18.84-5.39,24.23-4.64,5.22-22.18,21.16-24.01,22.82l-10.27,18.83c6.86-9.91,14.65-19.89,20.88-24.5,1.89-1.4,4.88-3.84,8.34-6.67,9.49-7.75,21.3-17.4,26.28-18.76,3.23-.88,6.53-.02,9.03,2.37,2.54,2.42,3.74,5.98,3.06,9.06-.85,3.81-10,14.64-20.12,26.34-3.08,3.57-5.52,6.39-6.52,7.73-3.35,4.47-8.63,9.34-9.6,10.23l-24.35,51.01c10.38-10.85,35.65-37.04,41.02-40.46,4.83-3.07,19-9.42,28.38-13.62,3.47-1.55,6.21-2.78,7.2-3.27,3.48-1.74,7.82-3.48,10.53-1.5,1.82,1.33,2.4,3.94,1.76,7.98-1.56,9.87-10.03,17.15-16.84,23.01-1.38,1.19-2.72,2.34-3.93,3.45-3.59,3.29-6.41,5.38-8.48,6.91-1.72,1.27-3.07,2.28-3.28,2.89-.26.77-2.69,3.58-12.23,14.35-10.95,12.35-25.94,29.28-28.14,33.67-3.57,7.14-7.2,28.53-7.72,32.17,1.2.89,12.14-1.59,37.08-12.51,21.16-9.25,35.28-11.89,48.73-9.08,9.33,1.94,15.06,5.24,16.14,9.27.41,1.53.32,3.87-2.43,6.32-2.69,2.39-10.52,6.22-20.43,11.06-10.62,5.19-22.67,11.08-31.42,16.7-7.76,4.99-20.37,12.15-32.58,19.08-14.59,8.28-28.37,16.11-33.52,19.97-9.45,7.09-15.74,9.12-34.44,15.16l-1.95.63c-18.38,5.95-30.65,7.56-32.92,7.82l-132.65,136.5c-.2.21-.46.31-.73.31Z"></path></g><path class="cls-5" d="m252.88,457.8l-17.64,15.25c-1.91,1.65-3.56,3.6-4.88,5.75l-31.32,51.24"></path><path class="cls-5" d="m373.92,596.58l-9.08.61s6.06,5.45.61,13.32"></path><path class="cls-5" d="m342.57,493.71s3.9-.53,8.34,6.5c0,0,3.33-2.59,4.37-6.5"></path><path class="cls-5" d="m309.26,446.48s6.79,1.53,10.48,4.41c1.62,1.26,4.62-.96,5.87-2.59h0"></path><path class="cls-5" d="m285.04,429.52s2.42,0,4.84,1.21c2.42,1.21,5.45,3.63,5.45,3.63,0,0,3.24-.94,4.84-4.84"></path><path class="cls-5" d="m245.08,444.05s4.14-.42,6.06,1.21c2.91,2.49,1.21,3.63,1.21,3.63,0,0,4.95-1.74,5.45-4.24"></path><path class="cls-5" d="m312.29,513.69s5.45,3.63,8.48,9.69"></path><path class="cls-5" d="m308.66,514.9s3.63,4.24,7.87,7.27"></path><line class="cls-5" x1="321.37" y1="515.51" x2="325.61" y2="520.96"></line><line class="cls-5" x1="331.53" y1="603.24" x2="335.77" y2="610.51"></line><line class="cls-5" x1="336.98" y1="614.75" x2="338.2" y2="617.17"></line><path class="cls-5" d="m341.22,605.06s1.82,7.87,1.21,15.14"></path><path class="cls-5" d="m276.56,477.96s6.06-.61,10.9,6.66"></path><line class="cls-5" x1="279.59" y1="485.23" x2="285.04" y2="488.26"></line><line class="cls-5" x1="281.41" y1="476.15" x2="285.04" y2="478.57"></line><path class="cls-5" d="m244.47,469.49s6.06-1.82,11.51,3.03"></path><path class="cls-5" d="m246.89,473.12s3.63,1.82,8.48,3.03"></path><line class="cls-5" x1="254.16" y1="466.46" x2="258.4" y2="467.67"></line><path class="cls-5" d="m204.5,479.78s4.24-1.21,11.51,0"></path><line class="cls-5" x1="217.22" y1="476.15" x2="223.28" y2="478.57"></line><line class="cls-5" x1="245.06" y1="517.34" x2="232.05" y2="542.08"></line></g></g></g></g></svg>